<?xml version="1.0" encoding="UTF-8" standalone="no"?>
<!DOCTYPE svg PUBLIC "-//W3C//DTD SVG 1.1//EN" "http://www.w3.org/Graphics/SVG/1.1/DTD/svg11.dtd">
<svg version="1.1" xmlns="http://www.w3.org/2000/svg" xmlns:xl="http://www.w3.org/1999/xlink" xmlns:dc="http://purl.org/dc/elements/1.1/" viewBox="0 0 501 501" width="501" height="501">
  <defs>
    <linearGradient x1="0" x2="1" id="Gradient" gradientUnits="userSpaceOnUse">
      <stop offset="0" stop-color="#4ec2bc"/>
      <stop offset=".49913184" stop-color="#45a0be"/>
      <stop offset="1" stop-color="#3d7cbf"/>
    </linearGradient>
    <linearGradient id="Obj_Gradient" xl:href="#Gradient" gradientTransform="translate(243.95 375.4) rotate(-90) scale(268.8)"/>
  </defs>
  <g id="Canvas_1" fill="none" stroke-dasharray="none" stroke-opacity="1" fill-opacity="1" stroke="none">
    <title>Canvas 1</title>
    <rect fill="white" x="0" y="0" width="501" height="501"/>
    <g id="Canvas_1_Layer_1">
      <title>Layer 1</title>
      <g id="Group_2">
        <g id="Graphic_4"/>
        <g id="Graphic_3">
          <path d="M 250.5 .5 C 388.6 .5 500.5 112.4 500.5 250.5 C 500.5 388.6 388.6 500.5 250.5 500.5 C 112.4 500.5 .5 388.6 .5 250.5 C .5 112.4 112.4 .5 250.5 .5 Z M 250.5 5684342e-20 C 216.7 5684342e-20 183.9 6.6 153 19.7 C 123.2 32.3 96.4 50.4 73.4 73.4 C 50.4 96.4 32.3 123.2 19.7 153 C 6.6 183.9 5684342e-20 216.7 5684342e-20 250.5 C 5684342e-20 284.3 6.6 317.1 19.7 348 C 32.3 377.8 50.4 404.6 73.4 427.6 C 96.4 450.6 123.2 468.7 153 481.3 C 183.9 494.4 216.7 501 250.5 501 C 284.3 501 317.1 494.4 348 481.3 C 377.8 468.7 404.6 450.6 427.6 427.6 C 450.6 404.6 468.7 377.8 481.3 348 C 494.4 317.1 501 284.3 501 250.5 C 501 216.7 494.4 183.9 481.3 153 C 468.7 123.2 450.6 96.4 427.6 73.4 C 404.6 50.4 377.8 32.3 348 19.7 C 317.1 6.6 284.3 5684342e-20 250.5 5684342e-20 Z" fill="white"/>
        </g>
      </g>
      <g id="Graphic_5">
        <path d="M 154.4 196.8 L 143.3 196.8 L 128.6 146.5 L 128.4 146.5 L 113.8 196.8 L 102.7 196.8 L 84.5 131.8 L 95.3 131.8 L 108.3 184.7 L 108.5 184.7 L 123.2 131.8 L 133.7 131.8 L 148.5 184.7 L 148.7 184.7 L 161.7 131.8 L 172.5 131.8 Z M 178.3 178.4 C 178.3 167.3 186.9 160.3 201.9 159.4 L 220.5 158.3 L 220.5 152.9 C 220.5 145 215.3 140.2 206.3 140.2 C 197.9 140.2 192.7 144.1 191.3 150.5 L 180.8 150.5 C 181.6 139.3 191.2 130.6 206.6 130.6 C 221.8 130.6 231.5 138.8 231.5 151.8 L 231.5 196.7 L 221 196.7 L 221 185.5 L 220.8 185.5 C 216.9 192.9 208.7 197.8 199.9 197.8 C 186.9 197.9 178.3 190.1 178.3 178.4 Z M 220.4 172.1 L 220.4 166.8 L 203 167.9 C 194.2 168.5 189.2 172.3 189.2 178.5 C 189.2 184.7 194.4 188.7 202.2 188.7 C 212.6 188.7 220.4 181.5 220.4 172.1 Z M 260.3 116.1 L 260.3 131.8 L 272.9 131.8 L 272.9 140.7 L 260.3 140.7 L 260.3 179.3 C 260.3 185.2 262.8 187.9 268.4 187.9 C 269.6 187.9 272.2 187.7 272.9 187.6 L 272.9 196.7 C 271.6 197 268.6 197.2 266 197.2 C 254.1 197.2 249.4 192.3 249.4 179.8 L 249.4 140.6 L 239.7 140.6 L 239.7 131.7 L 249.4 131.7 L 249.4 116 L 260.3 116 Z M 326.7 153.1 C 325.1 146 319.6 140.2 310.1 140.2 C 298.9 140.2 291.2 149.5 291.2 164.3 C 291.2 179.4 299 188.4 310.2 188.4 C 319.1 188.4 324.9 183.7 326.8 175.9 L 337.5 175.9 C 335.8 188.8 324.9 198 310.2 198 C 292.2 198 280.2 185.3 280.2 164.4 C 280.2 143.9 292.1 130.8 310.1 130.8 C 326.3 130.8 336 141.6 337.4 153.2 L 326.7 153.2 Z M 348.8 106.6 L 359.7 106.6 L 359.7 142.2 L 359.9 142.2 C 363.5 135 370.7 130.7 380.5 130.7 C 394.7 130.7 403.4 140.3 403.4 154.8 L 403.4 196.8 L 392.5 196.8 L 392.5 156.8 C 392.5 146.5 387.3 140.3 377.1 140.3 C 366.3 140.3 359.6 147.7 359.6 158.9 L 359.6 196.8 L 348.7 196.8 L 348.7 106.6 Z M 107.2 293.8 C 107.2 243.5 136.6 212.4 180.2 212.4 C 223.6 212.4 253 243.6 253 293.8 C 253 343.9 223.6 375.2 180.2 375.2 C 136.6 375.2 107.2 343.9 107.2 293.8 Z M 226.2 293.8 C 226.2 256.7 208 235.5 180.2 235.5 C 152.4 235.5 134 256.7 134 293.8 C 134 330.9 152.3 352.1 180.2 352.1 C 208.1 352.1 226.2 330.9 226.2 293.8 Z M 331.1 212.4 C 365.6 212.4 388.6 232.7 389.7 260.5 L 364.6 260.5 C 362.6 244 350.5 233.9 331.1 233.9 C 311.9 233.9 299.2 243.4 299.2 257.2 C 299.2 268.1 307.2 275.5 324.8 279.8 L 349.8 285.9 C 381.6 293.6 393.1 306 393.1 328.6 C 393.1 356 367.2 375.4 332.1 375.4 C 295.2 375.4 272.2 356.8 269.1 327.3 L 295.4 327.3 C 298.6 345.3 310.7 353.9 332 353.9 C 353.3 353.9 366.5 344.8 366.5 330.6 C 366.5 319.2 360.3 312.7 342.3 308.3 L 317.3 302.2 C 287.6 295.1 273.3 281.3 273.3 258.6 C 273.3 231.6 297.1 212.4 331.1 212.4 Z" fill="url(#Obj_Gradient)"/>
      </g>
    </g>
  </g>
</svg>
